<svg width="25" height="25" viewBox="0 0 25 25" fill="none" xmlns="http://www.w3.org/2000/svg">
<path d="M1.78564 6.25H23.2142" stroke="#727276" stroke-width="2" stroke-linecap="round" stroke-linejoin="round"/>
<path d="M4.46436 6.25H20.5358V22.3214C20.5358 22.795 20.3476 23.2492 20.0128 23.5841C19.6779 23.919 19.2237 24.1071 18.7501 24.1071H6.25007C5.77647 24.1071 5.32227 23.919 4.98738 23.5841C4.65249 23.2492 4.46436 22.795 4.46436 22.3214V6.25Z" fill="#727276" stroke="#727276" stroke-width="2" stroke-linecap="round" stroke-linejoin="round"/>
<path d="M8.03564 6.25V5.35714C8.03564 4.17314 8.50599 3.03763 9.3432 2.20041C10.1804 1.3632 11.3159 0.892853 12.4999 0.892853C13.6839 0.892853 14.8194 1.3632 15.6567 2.20041C16.4939 3.03763 16.9642 4.17314 16.9642 5.35714V6.25" stroke="#727276" stroke-width="2" stroke-linecap="round" stroke-linejoin="round"/>
<path d="M9.82129 9.82141V19.6428" stroke="#F9FAFB" stroke-width="2" stroke-linecap="round" stroke-linejoin="round"/>
<path d="M15.1787 9.82141V19.6428" stroke="#F9FAFB" stroke-width="2" stroke-linecap="round" stroke-linejoin="round"/>
</svg>
