<svg width="20" height="20" viewBox="0 0 20 20" fill="none" xmlns="http://www.w3.org/2000/svg">
<path d="M17.8572 0.714294H2.14293C1.35395 0.714294 0.714355 1.35389 0.714355 2.14287V17.8572C0.714355 18.6461 1.35395 19.2857 2.14293 19.2857H17.8572C18.6462 19.2857 19.2858 18.6461 19.2858 17.8572V2.14287C19.2858 1.35389 18.6462 0.714294 17.8572 0.714294Z" fill="#1E1E20" stroke="#1E1E20" stroke-linecap="round" stroke-linejoin="round"/>
<path d="M13 0V8.18182C13 8.39881 12.921 8.60692 12.7803 8.76036C12.6397 8.9138 12.4489 9 12.25 9H7.75C7.55109 9 7.36032 8.9138 7.21967 8.76036C7.07902 8.60692 7 8.39881 7 8.18182V0" fill="white"/>
<path d="M13 0V8.18182C13 8.39881 12.921 8.60692 12.7803 8.76036C12.6397 8.9138 12.4489 9 12.25 9H7.75C7.55109 9 7.36032 8.9138 7.21967 8.76036C7.07902 8.60692 7 8.39881 7 8.18182V0" stroke="#F9FAFB" stroke-linecap="round" stroke-linejoin="round"/>
<path d="M12.1431 15.7143H15.7145" stroke="#F9FAFB" stroke-width="2" stroke-linecap="round" stroke-linejoin="round"/>
</svg>
