<svg width="20" height="21" viewBox="0 0 20 21" fill="none" xmlns="http://www.w3.org/2000/svg">
<path d="M16 2L14.829 13.3571C14.7773 13.6978 14.6043 14.0083 14.3418 14.2314C14.0793 14.4546 13.7449 14.5753 13.4004 14.5714H4.40043C4.0889 14.5877 3.78062 14.5015 3.52266 14.3261C3.26471 14.1507 3.07125 13.8957 2.97186 13.6L1.07186 7.88571C1.00101 7.67088 0.982206 7.44229 1.01698 7.21876C1.05175 6.99524 1.1391 6.78317 1.27186 6.6C1.41015 6.40526 1.59507 6.2483 1.8097 6.14348C2.02433 6.03866 2.26181 5.98933 2.50043 6H15.5719" fill="#1E1E20"/>
<path d="M15.5719 6H2.50043C2.26181 5.98933 2.02433 6.03866 1.8097 6.14348C1.59507 6.2483 1.41015 6.40526 1.27186 6.6C1.1391 6.78317 1.05175 6.99524 1.01698 7.21876C0.982206 7.44229 1.00101 7.67088 1.07186 7.88571L2.97186 13.6C3.07125 13.8957 3.26471 14.1507 3.52266 14.3261C3.78062 14.5015 4.0889 14.5877 4.40043 14.5714H13.4004C13.7449 14.5753 14.0793 14.4546 14.3418 14.2314C14.6043 14.0083 14.7773 13.6978 14.829 13.3571L16 2L19 1" stroke="#1E1E20" stroke-width="2" stroke-linecap="round" stroke-linejoin="round"/>
<path d="M4.28557 19.2857C4.68006 19.2857 4.99986 18.966 4.99986 18.5715C4.99986 18.177 4.68006 17.8572 4.28557 17.8572C3.89109 17.8572 3.57129 18.177 3.57129 18.5715C3.57129 18.966 3.89109 19.2857 4.28557 19.2857Z" fill="#1E1E20" stroke="#1E1E20" stroke-width="2" stroke-linecap="round" stroke-linejoin="round"/>
<path d="M13.5712 19.2857C13.9657 19.2857 14.2855 18.966 14.2855 18.5715C14.2855 18.177 13.9657 17.8572 13.5712 17.8572C13.1767 17.8572 12.8569 18.177 12.8569 18.5715C12.8569 18.966 13.1767 19.2857 13.5712 19.2857Z" fill="#1E1E20" stroke="#1E1E20" stroke-width="2" stroke-linecap="round" stroke-linejoin="round"/>
</svg>
