<svg width="20" height="20" viewBox="0 0 20 20" fill="none" xmlns="http://www.w3.org/2000/svg">
<path d="M13.5712 2.14285H15.7141C16.093 2.14285 16.4563 2.29336 16.7242 2.56127C16.9921 2.82918 17.1426 3.19254 17.1426 3.57142V17.8571C17.1426 18.236 16.9921 18.5994 16.7242 18.8673C16.4563 19.1352 16.093 19.2857 15.7141 19.2857H4.28551C3.90662 19.2857 3.54326 19.1352 3.27535 18.8673C3.00744 18.5994 2.85693 18.236 2.85693 17.8571V3.57142C2.85693 3.19254 3.00744 2.82918 3.27535 2.56127C3.54326 2.29336 3.90662 2.14285 4.28551 2.14285H6.42836" fill="#1E1E20"/>
<path d="M13.5712 2.14285H15.7141C16.093 2.14285 16.4563 2.29336 16.7242 2.56127C16.9921 2.82918 17.1426 3.19254 17.1426 3.57142V17.8571C17.1426 18.236 16.9921 18.5994 16.7242 18.8673C16.4563 19.1352 16.093 19.2857 15.7141 19.2857H4.28551C3.90662 19.2857 3.54326 19.1352 3.27535 18.8673C3.00744 18.5994 2.85693 18.236 2.85693 17.8571V3.57142C2.85693 3.19254 3.00744 2.82918 3.27535 2.56127C3.54326 2.29336 3.90662 2.14285 4.28551 2.14285H6.42836" stroke="#1E1E20" stroke-linecap="round" stroke-linejoin="round"/>
<path d="M12.1425 0.714294H7.85679C7.06782 0.714294 6.42822 1.35389 6.42822 2.14287V2.85715C6.42822 3.64613 7.06782 4.28572 7.85679 4.28572H12.1425C12.9315 4.28572 13.5711 3.64613 13.5711 2.85715V2.14287C13.5711 1.35389 12.9315 0.714294 12.1425 0.714294Z" fill="#F9FAFB" stroke="#1E1E20" stroke-linecap="round" stroke-linejoin="round"/>
<path d="M6.42822 7.85715H13.5711" stroke="#F9FAFB" stroke-linecap="round" stroke-linejoin="round"/>
<path d="M6.42822 11.4286H13.5711" stroke="#F9FAFB" stroke-linecap="round" stroke-linejoin="round"/>
<path d="M6.42822 15H13.5711" stroke="#F9FAFB" stroke-linecap="round" stroke-linejoin="round"/>
</svg>
