<svg width="20" height="20" viewBox="0 0 20 20" fill="none" xmlns="http://www.w3.org/2000/svg">
<path d="M17.1429 10.7143V7.85713C17.1429 7.47825 16.9924 7.11489 16.7245 6.84698C16.4566 6.57907 16.0932 6.42856 15.7144 6.42856H2.14293C1.76405 6.42856 1.40068 6.57907 1.13277 6.84698C0.864865 7.11489 0.714355 7.47825 0.714355 7.85713V17.8571C0.714355 18.236 0.864865 18.5994 1.13277 18.8673C1.40068 19.1352 1.76405 19.2857 2.14293 19.2857H15.7144C16.0932 19.2857 16.4566 19.1352 16.7245 18.8673C16.9924 18.5994 17.1429 18.236 17.1429 17.8571V14.2857" fill="#1E1E20"/>
<path d="M17.1429 10.7143V7.85713C17.1429 7.47825 16.9924 7.11489 16.7245 6.84698C16.4566 6.57907 16.0932 6.42856 15.7144 6.42856H2.14293C1.76405 6.42856 1.40068 6.57907 1.13277 6.84698C0.864865 7.11489 0.714355 7.47825 0.714355 7.85713V17.8571C0.714355 18.236 0.864865 18.5994 1.13277 18.8673C1.40068 19.1352 1.76405 19.2857 2.14293 19.2857H15.7144C16.0932 19.2857 16.4566 19.1352 16.7245 18.8673C16.9924 18.5994 17.1429 18.236 17.1429 17.8571V14.2857" stroke="#1E1E20" stroke-linecap="round" stroke-linejoin="round"/>
<path d="M4.44434 3.88889L13.6554 1.13735C13.7465 1.1117 13.8417 1.10476 13.9355 1.11695C14.0293 1.12914 14.1196 1.16021 14.2011 1.20827C14.2825 1.25633 14.3534 1.3204 14.4094 1.3966C14.4654 1.4728 14.5053 1.55956 14.5269 1.65163L14.9269 3.25163" stroke="#1E1E20" stroke-width="2" stroke-linecap="round" stroke-linejoin="round"/>
<path d="M18.5714 10.7143H14.9999C14.6054 10.7143 14.2856 11.0341 14.2856 11.4286V13.5714C14.2856 13.9659 14.6054 14.2857 14.9999 14.2857H18.5714C18.9658 14.2857 19.2856 13.9659 19.2856 13.5714V11.4286C19.2856 11.0341 18.9658 10.7143 18.5714 10.7143Z" fill="#F9FAFB" stroke="#1E1E20" stroke-linecap="round" stroke-linejoin="round"/>
</svg>
